<svg width="150" height="35" viewBox="0 0 150 35" fill="none" xmlns="http://www.w3.org/2000/svg">
<path d="M10 18.0998C10 16.8015 11.026 15.7628 12.3086 15.7628H15.4893V12.0754C15.4893 10.4135 16.7719 9.4267 18.4649 9.4267C20.1065 9.4267 21.4404 10.4135 21.4404 12.0754V15.6589C24.0055 15.5031 26.5193 15.3473 29.0844 14.9318C30.367 14.7241 31.5983 15.607 31.7522 16.9053C31.9061 18.2556 30.9826 19.4501 29.8027 19.6059C24.1081 20.4369 18.5675 20.4369 12.3599 20.4369C11.026 20.4369 10 19.3982 10 18.0998ZM27.7506 2.83096C29.0331 2.83096 30.0592 3.86966 30.0592 5.16803V6.4664C30.0592 8.02445 29.7514 10.4654 29.187 12.1792C28.7766 13.4776 27.7506 14.1008 26.4167 14.1008C24.7238 14.1008 23.5438 13.0621 23.5438 11.5041C23.5438 11.1925 23.5951 10.7251 23.6977 10.3615C24.0055 9.16702 24.1594 8.12832 24.1594 7.55704H13.3346C12.0521 7.55704 11.026 6.57027 11.026 5.21997C11.026 3.92159 12.0521 2.88289 13.3346 2.88289H27.7506V2.83096ZM17.131 22.1508H33.3938C36.3694 22.1508 38.8319 24.7994 38.8319 27.8636C38.8319 30.8758 36.3694 33.5245 33.3938 33.5245H17.131C14.1555 33.5245 11.7443 30.8758 11.7443 27.8636C11.7443 24.7994 14.1555 22.1508 17.131 22.1508ZM18.6188 28.9542H31.9061C32.5217 28.9542 32.9321 28.4349 32.9321 27.8636C32.9321 27.2404 32.5217 26.721 31.9061 26.721H18.6188C18.0032 26.721 17.644 27.2404 17.644 27.8636C17.644 28.4349 18.0032 28.9542 18.6188 28.9542ZM32.5217 5.01223C32.5217 3.29837 33.8556 2 35.4972 2C37.1389 2 38.4728 3.29837 38.4728 5.01223V9.11509H40.2683C41.5509 9.11509 42.5769 10.1538 42.5769 11.4522C42.5769 12.7505 41.5509 13.7892 40.2683 13.7892H38.4728V18.4634C38.4728 20.2292 37.1389 21.4756 35.4972 21.4756C33.8556 21.4756 32.5217 20.1772 32.5217 18.4634V5.01223Z" fill="#4E60FF"/>
<path d="M59.25 17.5286V27.6559H71.1008C72.5373 27.6559 73.666 28.7985 73.666 30.1488C73.666 31.4991 72.5373 32.6417 71.1008 32.6417H45.6549C44.3211 32.6417 43.1411 31.4472 43.1411 30.1488C43.1411 28.7985 44.3211 27.6559 45.6549 27.6559H53.299V17.5286C53.299 15.8148 54.6328 14.6722 56.3258 14.6722C57.9162 14.6722 59.25 15.8148 59.25 17.5286ZM72.3321 7.24549C72.3321 11.2445 72.0243 16.6976 70.8956 22.2547C70.5878 23.7608 69.4592 24.7995 67.9714 24.7995C66.2784 24.7995 64.9446 23.4492 64.9446 21.7353C64.9446 21.4757 64.9959 21.216 65.0472 20.9044C66.0219 15.7109 66.3297 10.9329 66.3297 8.54386H46.6297C45.2445 8.54386 44.1672 7.45323 44.1672 6.05098C44.1672 4.64874 45.2445 3.55811 46.6297 3.55811H70.0235C71.3061 3.55811 72.3321 4.5968 72.3321 5.89518V7.24549Z" fill="#4E60FF"/>
<path d="M77.3086 27.4481C81.5667 23.6049 83.7727 18.4634 83.7727 9.68637V8.33606H79.0529C77.719 8.33606 76.6417 7.24543 76.6417 5.89512C76.6417 4.49288 77.719 3.40224 79.0529 3.40224H94.3922C95.8287 3.40224 96.8548 4.49288 96.8548 5.89512C96.8548 7.24543 95.8287 8.33606 94.3922 8.33606H89.775V9.68637C89.775 18.4634 91.981 23.5011 96.1878 27.2923C96.8034 27.8117 97.2139 28.5907 97.2139 29.5255C97.2139 31.1355 96.0339 32.33 94.3922 32.33C93.6227 32.33 92.8532 32.0703 92.3915 31.6548C89.8263 29.2139 87.9795 26.721 86.7482 23.0856C85.5683 26.8249 83.7214 29.4216 81.1563 31.8626C80.6945 32.2781 79.8737 32.5377 79.1555 32.5377C77.5138 32.5377 76.3338 31.3432 76.3338 29.7333C76.2825 28.7465 76.693 27.9675 77.3086 27.4481ZM99.779 5.01223C99.779 3.29837 101.113 2 102.755 2C104.396 2 105.73 3.29837 105.73 5.01223V30.8239C105.73 32.5897 104.396 33.8361 102.755 33.8361C101.113 33.8361 99.779 32.5377 99.779 30.8239V5.01223Z" fill="#4E60FF"/>
<path d="M111.989 18.0997H137.435C138.871 18.0997 140 19.2423 140 20.5926C140 21.9429 138.871 23.0855 137.435 23.0855H127.688V31.1354C127.688 32.8493 126.405 34.1476 124.712 34.1476C123.019 34.1476 121.737 32.8493 121.737 31.1354V23.0855H112.04C110.707 23.0855 109.527 21.891 109.527 20.5926C109.475 19.2423 110.604 18.0997 111.989 18.0997ZM112.913 7.86857C111.527 7.86857 110.45 6.77793 110.45 5.37569C110.45 3.97345 111.527 2.88281 112.913 2.88281H136.306C137.589 2.88281 138.615 3.92151 138.615 5.21988V6.31052C138.615 8.38792 138.41 12.0234 137.64 14.9837C137.23 16.4378 136.05 17.113 134.767 17.113C132.972 17.113 131.792 15.8146 131.792 14.2566C131.792 13.945 131.843 13.5295 131.946 13.1659C132.459 11.3482 132.664 8.90727 132.664 7.9205H112.913V7.86857Z" fill="#4E60FF"/>
</svg>
