<svg width="200" height="50" viewBox="0 0 200 50" fill="none" xmlns="http://www.w3.org/2000/svg">
<path d="M0 24.769C0 22.7715 1.57853 21.1735 3.5517 21.1735H8.44514V15.5006C8.44514 12.9438 10.4183 11.4257 13.0229 11.4257C15.5485 11.4257 17.6006 12.9438 17.6006 15.5006V21.0137C21.547 20.774 25.4144 20.5343 29.3607 19.8951C31.3338 19.5755 33.2281 20.9338 33.4649 22.9313C33.7016 25.0087 32.281 26.8464 30.4657 27.0861C21.7048 28.3645 13.1807 28.3645 3.63062 28.3645C1.57853 28.3645 0 26.7665 0 24.769ZM27.3086 1.2784C29.2818 1.2784 30.8603 2.8764 30.8603 4.87389V6.87139C30.8603 9.26839 30.3867 13.0237 29.5185 15.6604C28.8871 17.6579 27.3086 18.6167 25.2565 18.6167C22.6519 18.6167 20.8366 17.0187 20.8366 14.6217C20.8366 14.1423 20.9155 13.4232 21.0734 12.8639C21.547 11.0262 21.7837 9.42819 21.7837 8.54929H5.13023C3.15706 8.54929 1.57853 7.03119 1.57853 4.95379C1.57853 2.9563 3.15706 1.3583 5.13023 1.3583H27.3086V1.2784ZM10.9708 31.0012H35.9905C40.5683 31.0012 44.3567 35.0761 44.3567 39.7901C44.3567 44.4243 40.5683 48.4992 35.9905 48.4992H10.9708C6.39305 48.4992 2.6835 44.4243 2.6835 39.7901C2.6835 35.0761 6.39305 31.0012 10.9708 31.0012ZM13.2597 41.468H33.7016C34.6488 41.468 35.2802 40.669 35.2802 39.7901C35.2802 38.8314 34.6488 38.0324 33.7016 38.0324H13.2597C12.3125 38.0324 11.7601 38.8314 11.7601 39.7901C11.7601 40.669 12.3125 41.468 13.2597 41.468ZM34.6488 4.63419C34.6488 1.9975 36.7009 0 39.2265 0C41.7522 0 43.8042 1.9975 43.8042 4.63419V10.9463H46.5667C48.5398 10.9463 50.1184 12.5443 50.1184 14.5418C50.1184 16.5393 48.5398 18.1373 46.5667 18.1373H43.8042V25.3283C43.8042 28.0449 41.7522 29.9625 39.2265 29.9625C36.7009 29.9625 34.6488 27.965 34.6488 25.3283V4.63419Z" fill="#4E60FF"/>
<path d="M75.7696 23.8901V39.4705H94.0016C96.2116 39.4705 97.948 41.2283 97.948 43.3057C97.948 45.3831 96.2116 47.1409 94.0016 47.1409H54.8541C52.802 47.1409 50.9867 45.3032 50.9867 43.3057C50.9867 41.2283 52.802 39.4705 54.8541 39.4705H66.6141V23.8901C66.6141 21.2534 68.6662 19.4956 71.2708 19.4956C73.7175 19.4956 75.7696 21.2534 75.7696 23.8901ZM95.8959 8.06987C95.8959 14.2222 95.4223 22.6117 93.6859 31.1609C93.2124 33.478 91.476 35.076 89.1871 35.076C86.5825 35.076 84.5305 32.9986 84.5305 30.3619C84.5305 29.9624 84.6094 29.5629 84.6883 29.0835C86.1879 21.0936 86.6615 13.7428 86.6615 10.0674H56.3537C54.2227 10.0674 52.5652 8.38947 52.5652 6.23217C52.5652 4.07487 54.2227 2.39697 56.3537 2.39697H92.3442C94.3173 2.39697 95.8959 3.99497 95.8959 5.99247V8.06987Z" fill="#4E60FF"/>
<path d="M103.552 39.151C110.103 33.2384 113.496 25.3283 113.496 11.8252V9.74779H106.235C104.183 9.74779 102.526 8.06989 102.526 5.99249C102.526 3.8352 104.183 2.1573 106.235 2.1573H129.834C132.044 2.1573 133.623 3.8352 133.623 5.99249C133.623 8.06989 132.044 9.74779 129.834 9.74779H122.731V11.8252C122.731 25.3283 126.125 33.0786 132.597 38.9113C133.544 39.7103 134.175 40.9088 134.175 42.347C134.175 44.8238 132.36 46.6615 129.834 46.6615C128.65 46.6615 127.466 46.262 126.756 45.6228C122.81 41.8675 119.968 38.0324 118.074 32.4394C116.259 38.1922 113.417 42.1872 109.471 45.9424C108.761 46.5816 107.498 46.9811 106.393 46.9811C103.867 46.9811 102.052 45.1434 102.052 42.6666C101.973 41.1485 102.605 39.95 103.552 39.151ZM138.121 4.63419C138.121 1.9975 140.174 0 142.699 0C145.225 0 147.277 1.9975 147.277 4.63419V44.3444C147.277 47.061 145.225 48.9786 142.699 48.9786C140.174 48.9786 138.121 46.9811 138.121 44.3444V4.63419Z" fill="#4E60FF"/>
<path d="M156.906 24.7691H196.054C198.264 24.7691 200 26.5269 200 28.6043C200 30.6817 198.264 32.4395 196.054 32.4395H181.058V44.8239C181.058 47.4606 179.084 49.4581 176.48 49.4581C173.875 49.4581 171.902 47.4606 171.902 44.8239V32.4395H156.985C154.933 32.4395 153.118 30.6018 153.118 28.6043C153.039 26.5269 154.775 24.7691 156.906 24.7691ZM158.327 9.02879C156.196 9.02879 154.538 7.35089 154.538 5.19359C154.538 3.0363 156.196 1.3584 158.327 1.3584H194.317C196.29 1.3584 197.869 2.9564 197.869 4.95389V6.63179C197.869 9.82779 197.553 15.4208 196.369 19.9751C195.738 22.2123 193.923 23.251 191.95 23.251C189.187 23.251 187.372 21.2535 187.372 18.8565C187.372 18.3771 187.451 17.7379 187.609 17.1786C188.398 14.3821 188.714 10.6268 188.714 9.10869H158.327V9.02879Z" fill="#4E60FF"/>
</svg>
