<svg width="166" height="170" viewBox="0 0 166 170" fill="none" xmlns="http://www.w3.org/2000/svg">
<path fill-rule="evenodd" clip-rule="evenodd" d="M142.663 78.1431C119.021 64.9687 100.252 68.3977 88.792 73.5411C80.6708 77.1505 76.159 81.5721 76.159 81.5721L76.2492 81.6623L70.6546 85.7229L78.5051 93.2125C75.798 98.2657 73.0007 103.499 70.5644 107.56C63.3455 119.922 61.9017 169.462 61.9017 169.462H156.92L153.311 143.474L156.92 146.271C156.83 146.361 182.998 100.612 142.663 78.1431Z" fill="#F6F6FA"/>
<path d="M117.126 70.834C111.171 79.3162 86.2655 74.263 84.3705 61.5398C82.4756 48.8165 96.2816 35.1909 97.0035 35.1909C93.2136 53.7795 99.2594 62.9835 114.87 66.5027C116.043 66.7734 117.126 66.9539 118.209 67.0441C118.209 68.4879 117.848 69.8414 117.126 70.834Z" fill="#2B2D59"/>
<path d="M115.412 84.8206C105.125 74.8947 111.261 72.2778 113.517 71.0145C115.683 69.7512 114.87 66.5027 114.87 66.5027C99.2597 62.9835 93.1237 53.8697 97.0038 35.1909C97.3647 33.4765 97.8159 31.6717 98.3573 29.7768C104.493 7.39832 126.33 13.3539 126.33 13.3539C148.799 17.5047 145.28 46.7411 143.926 50.7115C143.024 53.5088 137.61 61.8105 128.677 65.3297C129.037 67.3149 129.94 69.7512 131.654 72.8192C137.52 82.7452 125.699 94.6563 115.412 84.8206Z" fill="#FBD9C9"/>
<path d="M115.952 8.30019C115.952 8.30019 107.019 -2.34763 97.9053 6.0443C88.7915 14.346 99.6198 26.1669 99.6198 26.1669C99.6198 26.1669 103.59 14.8874 116.133 12.9924C116.133 12.9924 109.275 19.309 115.501 29.7763C121.728 40.2436 134.631 39.2511 134.631 39.2511C134.631 39.2511 137.248 33.6564 140.136 35.5514C142.933 37.4463 140.406 45.748 136.436 46.7406C136.436 46.7406 124.796 61.0881 130.841 71.2847C136.797 81.5716 152.949 80.6693 162.785 65.9608C172.621 51.2524 157.461 15.2483 149.791 6.85642C141.85 -1.62574 127.142 -2.43786 118.84 7.48807C118.84 7.48807 120.915 2.34463 118.84 1.80322C116.855 1.2618 115.952 8.30019 115.952 8.30019Z" fill="#2B2D59"/>
<path d="M101.245 40.6047C100.613 40.6047 100.072 39.973 100.162 39.3414L100.343 37.1757C100.343 36.5441 100.974 36.0026 101.606 36.0929C102.238 36.0929 102.779 36.7245 102.689 37.3562L102.508 39.5218C102.508 40.1535 101.967 40.6949 101.245 40.6047Z" fill="#231C1D"/>
<path d="M115.953 42.7702C115.321 42.7702 114.78 42.1385 114.87 41.5069L115.05 39.3412C115.05 38.7096 115.682 38.1682 116.314 38.2584C116.945 38.2584 117.487 38.8901 117.396 39.5217L117.216 41.6874C117.216 42.319 116.584 42.8604 115.953 42.7702Z" fill="#231C1D"/>
<path d="M105.486 45.929L105.396 45.8387C105.215 45.6583 104.764 45.2071 107.02 38.9808C107.11 38.7101 107.381 38.6199 107.651 38.7101C107.922 38.8003 108.012 39.0711 107.922 39.3418C107.02 41.6879 106.208 44.395 106.117 45.2071C106.478 45.2973 107.651 45.3876 108.734 45.2973C109.005 45.2973 109.276 45.4778 109.276 45.7485C109.276 46.0192 109.095 46.2899 108.824 46.2899C107.651 46.2899 106.027 46.2899 105.486 45.929Z" fill="#231C1D"/>
<path d="M113.788 51.4329C113.697 51.3426 113.607 51.2524 113.607 51.0719C113.607 50.8012 113.788 50.5305 114.058 50.5305C114.149 50.5305 119.021 49.9891 120.916 45.8382C121.006 45.5675 121.277 45.4773 121.548 45.5675C121.819 45.6578 121.909 45.9285 121.819 46.1992C119.653 50.8914 114.419 51.4329 114.149 51.4329C113.968 51.5231 113.878 51.5231 113.788 51.4329Z" fill="#231C1D"/>
<path d="M113.337 31.4907L113.246 31.4005C113.066 31.22 113.156 30.8591 113.337 30.6786C113.517 30.5884 117.127 27.7008 119.653 29.686C119.834 29.8665 119.924 30.1372 119.743 30.4079C119.563 30.5884 119.292 30.6786 119.022 30.4981C117.127 28.9641 113.968 31.4005 113.968 31.4907C113.698 31.6712 113.517 31.6712 113.337 31.4907Z" fill="#231C1D"/>
<path d="M100.071 28.0622C99.9812 28.0622 99.9812 27.972 99.8909 27.8818C99.7105 27.6111 99.8007 27.3403 100.071 27.2501C102.147 26.077 105.034 29.4158 105.305 29.7767C105.486 29.9572 105.486 30.3181 105.215 30.4986C105.034 30.6791 104.673 30.6791 104.493 30.4084C103.771 29.5962 101.605 27.4306 100.432 28.0622C100.432 28.2427 100.252 28.2427 100.071 28.0622Z" fill="#231C1D"/>
<path d="M136.707 41.5975C136.617 41.5073 136.527 41.3268 136.527 41.1464C136.527 40.8757 136.527 38.8002 137.61 37.8979C138.061 37.5369 138.602 37.4467 139.144 37.5369C139.414 37.6272 139.595 37.8076 139.505 38.0784C139.414 38.3491 139.234 38.5295 138.963 38.4393C138.692 38.3491 138.422 38.4393 138.241 38.6198C137.61 39.1612 137.429 40.605 137.429 41.0561C137.429 41.3268 137.249 41.5073 136.978 41.5073C136.888 41.6878 136.797 41.5975 136.707 41.5975Z" fill="#231C1D"/>
<path fill-rule="evenodd" clip-rule="evenodd" d="M30.0485 44.7561C51.6149 38.981 73.8129 51.7945 79.6782 73.3608C85.4533 95.0174 72.6398 117.125 51.0735 122.99C29.5071 128.766 7.30913 115.952 1.4438 94.3858C-4.42152 72.7292 8.39196 50.5312 30.0485 44.7561Z" fill="#B1BAF1"/>
<path fill-rule="evenodd" clip-rule="evenodd" d="M63.8867 50.8013C69.1204 54.5009 73.5419 59.4639 76.5197 65.4195C76.6099 66.5023 76.249 67.1339 75.7076 66.9535C70.3837 64.9683 69.0301 70.9238 67.2254 66.2316C64.9695 60.3663 59.5554 65.7804 59.5554 65.8706C58.4725 72.8188 48.2759 71.4653 52.3365 66.5023C55.4045 62.8026 50.4416 62.9831 54.8631 61.1784C61.3601 58.4713 57.8409 59.5541 59.6456 58.2006C63.8867 55.1326 54.7729 53.1474 63.5257 50.8013C63.616 50.8013 63.7964 50.8013 63.8867 50.8013Z" fill="#8C92E6"/>
<path fill-rule="evenodd" clip-rule="evenodd" d="M0 84.0086C0 73.2706 4.24108 63.0739 11.5502 55.5843C11.9111 55.6746 12.1818 55.7648 12.1818 55.7648C12.8135 56.5769 16.7838 58.1109 20.664 54.4113C22.7394 52.4261 26.8 55.5843 29.9583 54.2308C35.8236 51.7042 38.26 60.7278 30.229 57.1183C26.9805 55.6746 26.8 59.0133 22.8296 59.8254C20.303 60.2766 21.837 65.781 26.9805 61.8106C31.763 58.2012 37.6283 63.2544 34.6505 64.3372C26.9805 67.2248 35.2822 70.5635 27.0707 74.2631C27.0707 74.2631 23.0101 80.3089 20.8445 79.2261C17.5057 77.5116 17.6862 75.8874 12.5428 80.6699C11.8209 81.3015 12.4525 83.2867 12.9939 83.1965C16.1522 83.7379 13.0842 84.55 16.8741 82.6551C20.0323 81.0308 16.6034 85.5426 17.8667 86.1743C20.1226 87.4376 19.4007 93.0322 23.9125 86.8961C26.2586 83.6477 29.5973 86.9864 31.2216 88.7009C32.7556 90.3251 35.3724 87.618 36.4552 92.0396C36.8162 93.3931 42.3206 92.1298 42.6815 93.4834C44.5765 95.1076 46.1105 100.702 42.6815 103.59C36.0943 109.094 46.8323 107.199 37.1771 115.411C36.7259 115.772 36.9064 119.201 37.3576 119.02C38.9818 121.276 35.0115 125.607 32.2142 116.042C31.0411 112.072 26.8902 115.14 27.2512 104.763C27.3414 101.063 22.3785 101.153 21.4761 99.6194C15.0694 92.4908 22.198 94.3857 19.5812 90.5056C18.1374 88.3399 15.9717 93.8443 13.4451 89.513C7.5798 87.7985 9.11381 90.3251 4.24108 83.1062C1.98519 80.2187 0.812122 84.6403 0 84.0086Z" fill="#8C92E6"/>
<path fill-rule="evenodd" clip-rule="evenodd" d="M78.5049 69.8411C78.956 71.0142 79.317 72.1872 79.6779 73.3603C83.2874 86.7152 79.6779 100.341 71.3762 110.086C70.2934 106.567 70.0227 100.882 68.6692 100.16C61.721 96.7314 68.3984 80.6694 62.2624 86.264C58.4725 89.7832 42.1398 84.6398 55.0436 73.992C61.8112 68.3973 69.6617 68.3973 78.5049 69.8411Z" fill="#8C92E6"/>
<path fill-rule="evenodd" clip-rule="evenodd" d="M30.0483 44.7562C44.125 40.9663 58.4725 45.1171 68.3985 54.5017C68.3985 55.3138 68.4887 56.2161 68.4887 57.0283C68.4887 81.8431 48.3661 101.966 23.5513 101.966C15.791 101.966 8.48192 99.9805 2.16542 96.5515C1.89471 95.8296 1.71424 95.1077 1.53377 94.2956C-4.42179 72.7293 8.39169 50.5313 30.0483 44.7562Z" fill="#B1BAF1"/>
<path fill-rule="evenodd" clip-rule="evenodd" d="M63.8867 50.8013C65.5109 51.8841 66.9547 53.1474 68.3985 54.5009C68.3985 55.3131 68.4887 56.2154 68.4887 57.0275C68.4887 60.3663 68.1278 63.5245 67.4961 66.5925C67.4059 66.5023 67.4059 66.3218 67.3156 66.2316C64.9695 60.3663 59.5554 65.7804 59.5554 65.8706C58.4725 72.8188 48.2759 71.4653 52.3365 66.5023C55.4045 62.8026 50.4416 62.9831 54.8631 61.1784C61.3601 58.4713 57.8409 59.5541 59.6456 58.2006C63.8867 55.1326 54.7729 53.1474 63.5257 50.8013C63.616 50.8013 63.7964 50.8013 63.8867 50.8013Z" fill="#8C92E6"/>
<path fill-rule="evenodd" clip-rule="evenodd" d="M0 84.0086C0 73.2705 4.24108 63.0739 11.5502 55.5843C11.9111 55.6746 12.1818 55.7648 12.1818 55.7648C12.8135 56.5769 16.7838 58.1109 20.664 54.4113C22.7394 52.4261 26.8 55.5843 29.9583 54.2308C35.8236 51.7042 38.26 60.7278 30.229 57.1183C26.9805 55.6746 26.8 59.0133 22.8296 59.8254C20.303 60.2766 21.837 65.781 26.9805 61.8106C31.763 58.2012 37.6283 63.2544 34.6505 64.3372C26.9805 67.2248 35.2822 70.5635 27.0707 74.2631C27.0707 74.2631 23.0101 80.3089 20.8445 79.2261C17.5057 77.5116 17.6862 75.8874 12.5428 80.6699C11.8209 81.3015 12.4525 83.2867 12.9939 83.1965C16.1522 83.7379 13.0842 84.55 16.8741 82.6551C20.0323 81.0308 16.6034 85.5426 17.8667 86.1743C20.1226 87.4376 19.4007 93.0322 23.9125 86.8961C26.2586 83.6477 29.5973 86.9864 31.2216 88.7009C32.7556 90.3251 35.3724 87.618 36.4552 92.0396C36.8162 93.3931 42.3206 92.1298 42.6815 93.4834C43.4034 94.115 44.1253 95.3783 44.4862 96.8221C38.8014 99.7999 32.3044 101.605 25.4465 101.966C24.0027 101.063 21.9273 100.702 21.3859 99.7999C14.9791 92.6712 22.1078 94.5662 19.4909 90.686C18.0471 88.5204 15.8815 94.0248 13.3549 89.6935C7.48957 87.979 9.02357 90.5056 4.15084 83.2867C1.98519 80.2187 0.812122 84.6403 0 84.0086Z" fill="#8C92E6"/>
<path fill-rule="evenodd" clip-rule="evenodd" d="M56.7582 87.257C51.4343 86.3547 45.8397 81.5722 55.0437 73.9924C58.6532 71.0146 62.5333 69.5708 66.7744 69.1196C64.8794 75.9775 61.3603 82.1136 56.7582 87.257Z" fill="#8C92E6"/>
<path fill-rule="evenodd" clip-rule="evenodd" d="M129.849 112.342L147.626 136.074C147.626 136.074 106.839 165.942 84.8217 148.256C62.8042 130.57 45.7497 112.342 45.7497 112.342C45.7497 112.342 18.8594 100.612 34.2897 94.5659C49.8103 88.6103 65.0601 99.0776 65.0601 99.0776C65.0601 99.0776 83.7389 123.802 94.6574 124.885C105.576 125.968 129.849 112.342 129.849 112.342Z" fill="#FBD9C9"/>
<path fill-rule="evenodd" clip-rule="evenodd" d="M117.397 112.252L156.92 146.271L155.657 116.312C155.567 116.312 131.654 98.7165 117.397 112.252Z" fill="#F6F6FA"/>
<path d="M122.449 112.703L122.089 111.891C126.961 109.816 131.834 101.785 131.834 101.694L132.646 102.146C132.375 102.506 127.593 110.447 122.449 112.703Z" fill="#B1BAF1"/>
</svg>
