<svg width="144" height="223" viewBox="0 0 144 223" fill="none" xmlns="http://www.w3.org/2000/svg">
<path fill-rule="evenodd" clip-rule="evenodd" d="M103.666 15.291C106.807 28.5271 120.04 36.6843 133.279 33.5437C137.41 32.5637 141.047 30.5981 144 27.9556V22.3572C141.17 26.0032 137.108 28.7346 132.243 29.8645C121.093 32.4531 109.954 25.4509 107.333 14.2063C106.178 9.24707 106.965 4.23999 109.188 0H104.947C102.967 4.66382 102.405 9.97998 103.666 15.291ZM144 70.1401C128.756 56.9099 108.857 48.9011 87.0638 48.8835C38.9497 48.8447 0.0444107 87.6821 3.81259e-05 135.789C-0.0443955 183.813 38.7555 222.767 86.7585 222.884C108.639 222.939 128.667 214.898 144 201.589V182.199C130.555 198.707 110.037 209.271 86.9639 209.362C46.9206 209.523 13.6327 176.519 13.505 136.539C13.3774 95.7083 46.0159 62.5491 86.4921 62.3882C109.74 62.2964 130.456 72.8872 144 89.5598V70.1401ZM144 108.295C133.72 87.0686 111.985 72.4551 86.8862 72.5347C51.7665 72.6514 23.5686 100.965 23.6574 136.039C23.7407 170.875 52.1106 199.227 86.8474 199.188C112 199.16 133.726 184.588 144 163.479V108.295ZM112.49 0C109.998 3.92407 109.02 8.81104 110.16 13.6836C112.417 23.3416 122.019 29.2993 131.691 27.0466C137.392 25.7183 141.813 21.7883 144 16.7996V5C144 2.23853 141.761 0 139 0H124.972C125.182 0.389404 125.392 0.779053 125.585 1.17603C125.756 1.5293 125.925 1.54907 126.255 1.39038C127.107 0.979492 128.003 0.685303 128.939 0.535156C130.492 0.283936 131.816 0.688965 132.838 1.93115L132.876 1.97705L132.925 2.03857C133.222 2.41479 133.477 2.81958 133.683 3.25244C134.231 4.40503 134.246 5.53369 133.502 6.62085C133.281 6.94238 133.01 7.22095 132.699 7.53149C132.732 7.5415 132.755 7.5498 132.773 7.55591C132.797 7.56445 132.81 7.56934 132.824 7.56958C134.214 7.61523 135.128 8.34277 135.701 9.56689L135.698 9.57422C136.297 10.8521 136.179 12.0508 135.326 13.1782C134.767 13.9185 134.056 14.4915 133.289 14.9966C133.077 15.1355 133.071 15.2385 133.181 15.4399C133.305 15.6658 133.427 15.8923 133.549 16.1194L133.843 16.6709L134.029 17.0208C134.136 17.22 134.242 17.4187 134.35 17.6169L134.46 17.8198C134.576 18.031 134.605 18.1582 134.338 18.2808C133.912 18.4768 133.501 18.708 133.094 18.9443C132.881 19.0688 132.768 19.0422 132.657 18.8186C132.525 18.5508 132.387 18.2849 132.246 18.0203L132.106 17.7583L131.869 17.3193C131.814 17.218 131.764 17.1018 131.713 16.9849C131.589 16.6956 131.462 16.4023 131.256 16.3225C131.041 16.24 130.801 16.397 130.554 16.5586C130.454 16.6238 130.353 16.6899 130.252 16.7412L130.231 16.7517L130.195 16.7688L130.153 16.7864C129.904 16.8857 129.846 17.0105 129.993 17.2693C130.061 17.3894 130.127 17.5103 130.193 17.6313C130.259 17.7532 130.325 17.8755 130.39 17.998L130.584 18.364L130.587 18.3691L130.77 18.7161C130.91 18.98 131.052 19.2432 131.2 19.5034C131.244 19.5808 131.271 19.6467 131.282 19.7043C131.311 19.8582 131.224 19.9524 131.023 20.0466C130.634 20.229 130.253 20.4319 129.884 20.6514C129.649 20.7908 129.531 20.7737 129.4 20.5142C129.335 20.3843 129.269 20.2549 129.202 20.126C129.064 19.8591 128.922 19.5938 128.78 19.3284L128.766 19.302C128.678 19.1375 128.59 18.9731 128.504 18.8081C128.44 18.687 128.376 18.5659 128.314 18.4443L128.254 18.3279L128.185 18.1919C128.122 18.0657 128.062 17.9866 127.989 17.9531C127.902 17.9136 127.797 17.9373 127.646 18.0208C127.415 18.1494 127.182 18.2764 126.949 18.4026L126.548 18.6179L126.045 18.887L125.995 18.9133C125.551 19.1506 125.106 19.3879 124.665 19.6304C124.424 19.7632 124.303 19.7273 124.184 19.4795C123.977 19.0432 123.752 18.6123 123.507 18.196C123.359 17.9456 123.362 17.8157 123.653 17.6809C124.066 17.4897 124.47 17.2686 124.849 17.0159C125.336 16.6895 125.454 16.1921 125.178 15.6721C123.794 13.0588 122.403 10.4492 121.009 7.84155C120.758 7.37354 120.405 7.26343 119.927 7.49268C119.588 7.65503 119.257 7.83643 118.935 8.03027C118.724 8.15747 118.596 8.146 118.444 7.93188C118.221 7.61743 117.993 7.30664 117.755 7.00269C117.62 6.82959 117.483 6.65869 117.342 6.49072C117.135 6.24609 117.202 6.17236 117.453 6.04175C118.468 5.5166 119.468 4.96411 120.479 4.4314C120.703 4.31396 120.75 4.2207 120.614 3.97876C120.372 3.54907 120.142 3.11304 119.913 2.67725L119.908 2.66699C119.713 2.29761 119.519 1.92822 119.317 1.56274C119.198 1.34717 119.213 1.2373 119.437 1.12793C119.859 0.920166 120.281 0.708984 120.684 0.467041C120.92 0.324219 121.017 0.365967 121.137 0.603516C121.218 0.762451 121.301 0.920898 121.384 1.07886C121.519 1.33667 121.657 1.59351 121.795 1.85034L121.799 1.8584C122.001 2.23511 122.203 2.61182 122.399 2.99219C122.506 3.20239 122.594 3.27515 122.817 3.13696C123.113 2.95239 123.422 2.78589 123.737 2.63574C123.949 2.53564 123.955 2.4375 123.847 2.24194C123.802 2.15894 123.756 2.07544 123.712 1.99194L123.6 1.78223L123.458 1.51318L123.335 1.27808L123.095 0.822754L123.032 0.704102L122.915 0.484375C122.855 0.374512 122.796 0.264893 122.735 0.155762C122.706 0.10376 122.677 0.0517578 122.648 0H112.49ZM114.906 129.428C113.93 134.107 111.376 137.354 106.63 138.642C106.608 138.648 106.588 138.657 106.564 138.67C106.537 138.685 106.507 138.704 106.468 138.729L106.465 138.731C106.41 138.767 106.337 138.814 106.231 138.875C107.552 139.691 108.712 140.43 109.733 141.356C113.18 144.493 114.046 148.389 113.097 152.802C112.708 154.617 112.087 156.365 111.265 158.036C108.756 163.143 104.532 165.613 98.9814 166.012C95.6397 166.257 92.3149 165.973 89.051 165.252C87.7854 164.974 87.2193 165.18 86.9195 166.534C86.5754 168.065 86.1676 169.583 85.7597 171.101L85.7585 171.106C85.5102 172.03 85.262 172.954 85.028 173.881L84.9206 174.311C84.8818 174.468 84.8434 174.625 84.8055 174.783C84.7581 174.981 84.7115 175.178 84.6659 175.376C84.4217 176.436 83.9832 176.514 83.1006 176.248C81.6463 175.815 80.1753 175.398 78.6877 175.087C77.6275 174.865 77.3111 174.516 77.6498 173.372C78.1711 171.606 78.6275 169.823 79.0839 168.039C79.2542 167.374 79.4246 166.708 79.5983 166.043C79.6727 165.758 79.7477 165.474 79.8236 165.189C79.9046 164.886 79.9866 164.583 80.0699 164.281C80.2808 163.52 80.1809 163.187 79.3705 163.015C78.166 162.754 76.967 162.432 75.7958 162.038C74.9187 161.744 74.6745 162.066 74.4747 162.876C74.1089 164.353 73.7178 165.823 73.3267 167.293L73.3131 167.343L73.3122 167.346L73.3113 167.349L73.3104 167.352C73.1416 167.987 72.9729 168.622 72.8064 169.257C72.5561 170.211 72.3106 171.166 72.0768 172.124C71.8547 173.039 71.555 173.261 70.628 172.962C69.0461 172.457 67.4197 172.073 65.7989 171.702C64.9385 171.507 64.7997 171.141 65.0328 170.303C65.4308 168.881 65.7986 167.452 66.1664 166.023C66.6042 164.323 67.042 162.623 67.5307 160.933C67.8027 159.99 67.564 159.707 66.6981 159.485L66.023 159.31L65.249 159.107L64.3492 158.87L63.0816 158.533L61.7121 158.167C59.4692 157.568 57.2266 156.969 54.9748 156.404C54.0035 156.16 53.7148 155.96 54.2255 154.95C55.1858 153.041 56.0461 151.076 56.8454 149.094C57.1952 148.234 57.6281 148.089 58.4552 148.356C59.7207 148.761 61.0085 149.116 62.3074 149.399C64.1392 149.799 65.266 149.133 65.7489 147.318C68.4244 137.21 71.0887 127.097 73.7253 116.978C74.2527 114.963 73.4422 113.348 71.4995 112.621C69.9897 112.061 68.4188 111.627 66.8424 111.306C65.7322 111.078 65.6157 110.634 65.921 109.652C66.4261 108.02 66.8479 106.354 67.2087 104.684C67.4141 103.735 67.8027 103.513 68.7408 103.773C69.136 103.883 69.5315 103.991 69.9273 104.099L70.7101 104.311C71.0688 104.407 71.4277 104.503 71.7867 104.599L72.7434 104.853L74.0765 105.205C76.1576 105.755 78.2387 106.304 80.3086 106.887C81.391 107.193 81.774 106.921 82.0237 105.861C82.3741 104.391 82.7602 102.93 83.1465 101.469C83.5498 99.9426 83.9533 98.4163 84.3162 96.8796C84.5549 95.8806 84.949 95.7251 85.8704 96.0137C87.3192 96.469 88.7957 96.8574 90.2833 97.1682C91.3379 97.3904 91.6543 97.7844 91.3324 98.8945C90.9073 100.353 90.5265 101.822 90.1458 103.291L90.1443 103.297L90.1427 103.303C89.7737 104.727 89.4048 106.151 88.9955 107.564C88.7013 108.575 89.0011 108.958 89.9391 109.096C90.4434 109.17 90.9789 109.364 91.5062 109.554C92.488 109.91 93.4416 110.254 94.1133 109.796C94.7574 109.354 94.9543 108.241 95.1484 107.145C95.2269 106.701 95.305 106.259 95.4122 105.866C95.9339 103.94 96.4557 102.008 96.9054 100.066C97.1052 99.2053 97.4715 99.0222 98.3042 99.2776C99.8972 99.7605 101.501 100.221 103.128 100.549C104.144 100.754 104.149 101.215 103.922 102.036C103.514 103.519 103.123 105.006 102.733 106.494L102.71 106.581C102.558 107.158 102.407 107.736 102.254 108.313C101.993 109.299 101.729 110.284 101.457 111.267C101.241 112.049 101.346 112.399 102.19 112.704C105.237 113.82 108.151 115.213 110.677 117.306C114.529 120.492 115.911 124.521 114.89 129.406L114.906 129.428ZM82.4783 138.339L82.4829 138.34C86.1269 139.225 89.7682 140.11 93.1583 141.779L93.1527 141.773C94.6958 142.533 96.139 143.449 97.2881 144.759C100.513 148.45 99.0143 153.812 94.3517 155.316C92.9251 155.777 91.4653 155.844 89.9833 155.827C85.8091 155.76 81.8236 154.656 77.8437 153.546C77.2831 153.39 77.2276 153.174 77.3719 152.641C78.0097 150.246 78.637 147.848 79.2624 145.45L79.6652 143.904C80.1025 142.226 80.5397 140.547 80.9799 138.87L80.9869 138.844C81.1057 138.4 81.2048 138.03 81.9235 138.204L82.4783 138.339ZM98.8091 121.613C98.2151 121.141 97.5657 120.73 96.8996 120.364C94.2907 118.945 91.4402 118.237 88.5915 117.531L88.0809 117.404L87.4466 117.245C86.7972 117.078 86.6362 117.389 86.4975 117.927C85.4317 122.018 84.3493 126.109 83.2558 130.194C83.1004 130.771 83.2392 131.043 83.8553 131.21L84.4285 131.364C87.3625 132.155 90.3108 132.949 93.719 132.981C94.0798 132.964 94.7959 132.969 95.5063 132.897C98.3761 132.592 100.413 131.016 101.135 128.562C101.945 125.815 101.185 123.495 98.8091 121.613ZM126.197 9.2251C127.143 8.74414 128.088 8.26318 128.913 7.58325L128.912 7.58521C129.066 7.45801 129.213 7.32471 129.35 7.18164C129.546 6.97632 129.719 6.75098 129.855 6.49438C130.503 5.2688 129.742 3.89062 128.361 3.78003C128.071 3.75684 127.789 3.7854 127.509 3.83838C127.381 3.86255 127.253 3.89185 127.125 3.92358C125.981 4.21338 124.956 4.77661 123.933 5.34106C123.789 5.42041 123.787 5.48364 123.862 5.62085C124.496 6.80298 125.12 7.99097 125.751 9.17578L125.754 9.18237C125.793 9.25464 125.828 9.31958 125.895 9.3335C125.934 9.3418 125.985 9.33276 126.054 9.29785L126.197 9.2251ZM131.462 13.1143L131.404 13.1694L131.335 13.2324C130.71 13.7927 129.972 14.1726 129.234 14.5522L128.937 14.7058C128.769 14.7939 128.705 14.7188 128.631 14.5796L128.367 14.0801L128.062 13.5073C127.69 12.8091 127.316 12.1113 126.941 11.4148C126.861 11.2661 126.881 11.1821 127.04 11.0962L127.189 11.0159L127.192 11.0137C127.947 10.6064 128.705 10.1973 129.64 9.96729L129.745 9.94556C129.792 9.93555 129.846 9.92432 129.904 9.91309L129.989 9.89722L130.064 9.88477L130.137 9.87402C130.946 9.77124 131.61 10.0725 131.968 10.7007C132.369 11.4043 132.311 12.0923 131.78 12.7646C131.703 12.8621 131.62 12.9551 131.532 13.0439L131.462 13.1143ZM50.1913 3.78247C58.5852 0.591553 67.9462 4.79517 71.1386 13.1897C74.3321 21.5874 70.1128 30.9648 61.7076 34.1523C53.3291 37.3284 43.9419 33.0938 40.7688 24.7061C37.5973 16.3257 41.8119 6.96777 50.1913 3.78247ZM50.9585 6.18774C43.9934 8.86841 40.4502 16.8691 43.1408 23.843C45.8813 30.9473 53.8008 34.4819 60.8722 31.7573C67.9718 29.022 71.4851 21.0916 68.7451 13.988C66.0257 6.93872 58.0718 3.45068 50.9585 6.18774ZM67.0015 14.7317C64.646 8.61377 57.8326 5.57812 51.7207 7.92578C45.6501 10.2566 42.5912 17.0901 44.9077 23.1462C47.2481 29.2656 54.0845 32.3381 60.1728 30.0071C66.2843 27.6675 69.3449 20.821 67.0015 14.7317ZM58.9411 23.4021C58.06 23.5427 57.3238 23.3132 56.7837 22.571C56.7784 22.5637 56.7709 22.5583 56.7579 22.5488C56.7479 22.5415 56.7346 22.5317 56.7164 22.5168C56.662 22.8015 56.6103 23.053 56.5166 23.2927C56.1988 24.1025 55.5767 24.5127 54.7439 24.6406C54.4015 24.6936 54.0552 24.7014 53.7091 24.6692C52.6516 24.571 51.9399 23.9985 51.5011 23.0569C51.2364 22.4902 51.0646 21.8916 50.9735 21.2742C50.9377 21.0352 50.8642 20.95 50.6081 20.9878C50.4231 21.0144 50.2373 21.0361 50.0512 21.0562L49.9582 21.0662L49.7357 21.0891C49.5215 21.1108 49.3073 21.1326 49.0938 21.1592L49.0163 21.1692L48.916 21.1826C48.7148 21.2104 48.6722 21.1392 48.6599 20.9675C48.6526 20.8699 48.6448 20.772 48.6358 20.6741C48.6189 20.4888 48.5981 20.304 48.5688 20.1206C48.5371 19.9209 48.577 19.8425 48.799 19.8254C49.1422 19.7991 49.484 19.76 49.826 19.7209L49.8615 19.7166C50.0894 19.6907 50.3173 19.6648 50.5458 19.6431C50.6924 19.6294 50.7438 19.5898 50.7199 19.437C50.6993 19.3013 50.6826 19.1646 50.6705 19.0273C50.6624 18.9346 50.6563 18.8416 50.6527 18.7485C50.6457 18.5759 50.5733 18.5547 50.4186 18.5737C50.1368 18.6082 49.8545 18.6377 49.5721 18.6672C49.2632 18.6995 48.9543 18.7319 48.6463 18.7705C48.5614 18.7812 48.504 18.7778 48.4663 18.7507C48.4264 18.7222 48.4085 18.6667 48.4037 18.5735C48.3866 18.2639 48.3453 17.9548 48.3024 17.6475C48.2791 17.4844 48.3338 17.4358 48.4955 17.4209C48.6819 17.4038 48.8679 17.384 49.0538 17.3635L49.3147 17.3342C49.6412 17.2974 49.9678 17.2605 50.2958 17.2334C50.3514 17.2288 50.3932 17.22 50.4239 17.2053C50.445 17.1951 50.4609 17.1821 50.4724 17.166C50.4991 17.1282 50.5022 17.0725 50.4931 16.9919C50.4613 16.7085 50.4317 16.4248 50.4024 16.1411L50.391 16.0312C50.3465 15.6013 50.302 15.1714 50.2509 14.7422C50.2289 14.5566 50.2446 14.4929 50.4548 14.5149C50.8517 14.5554 51.2516 14.575 51.6504 14.5825C51.8236 14.5862 51.8776 14.6521 51.8861 14.8142C51.8898 14.8811 51.8942 14.948 51.8994 15.0149C51.9033 15.0654 51.9077 15.1162 51.9126 15.1667C51.9192 15.2356 51.9267 15.3042 51.9352 15.3728C51.9428 15.4338 51.9511 15.4946 51.9603 15.5554C52.0124 15.9016 52.2035 16.0537 52.5522 16.0173C54.4931 15.812 56.4342 15.6042 58.3744 15.3914C58.761 15.3494 58.9888 15.1006 58.9864 14.7134C58.9852 14.5752 58.9784 14.4363 58.9667 14.2979C58.953 14.1355 58.9325 13.9736 58.9062 13.8135C58.8976 13.7605 58.8955 13.7178 58.9006 13.6833C58.9054 13.6501 58.9167 13.6245 58.9348 13.6047C58.9718 13.5645 59.0373 13.5491 59.1335 13.543C59.4517 13.5225 59.7702 13.4854 60.0856 13.4373C60.2648 13.4099 60.3294 13.4629 60.3462 13.6438C60.4161 14.3857 60.5057 15.1267 60.5722 15.8687C60.591 16.0776 60.6639 16.1265 60.8654 16.0996C61.4368 16.0247 62.0123 15.9783 62.5843 15.9021C62.7745 15.8774 62.8277 15.9358 62.8387 16.1157C62.85 16.3044 62.8673 16.4937 62.8908 16.6816C62.9025 16.7754 62.9158 16.8689 62.9307 16.9622C62.9348 16.988 62.9375 17.012 62.9388 17.0339C62.9408 17.0701 62.9386 17.1011 62.9315 17.1277C62.9209 17.1672 62.8993 17.1968 62.8637 17.218C62.8259 17.2405 62.7723 17.2539 62.6994 17.26C62.5704 17.2703 62.4415 17.2825 62.3128 17.2954C62.1592 17.311 62.0058 17.3281 61.8525 17.3452C61.712 17.3608 61.5714 17.3765 61.4308 17.3911C61.298 17.405 61.165 17.4177 61.0318 17.4287C60.836 17.4446 60.7891 17.5225 60.8273 17.6953C60.848 17.7883 60.8498 17.8948 60.8516 17.9995L60.853 18.0684C60.8574 18.2375 60.873 18.3936 60.9828 18.47C61.0396 18.5093 61.1158 18.521 61.202 18.5183C61.3718 18.5132 61.5803 18.4521 61.7547 18.4351L61.842 18.4263C62.1836 18.3921 62.5259 18.3567 62.8656 18.3098C63.029 18.2876 63.0853 18.3394 63.0962 18.5015C63.1178 18.8115 63.1441 19.1218 63.1952 19.4272C63.2204 19.5789 63.1751 19.6299 63.0761 19.6519C63.0505 19.6577 63.0212 19.6614 62.9885 19.6646C62.7033 19.6921 62.4183 19.7229 62.1332 19.7537C61.8271 19.7866 61.521 19.8196 61.2146 19.8486C61.0637 19.8628 61.0097 19.9045 61.0126 20.072C61.0206 20.6777 60.9714 21.2786 60.7743 21.8582C60.4747 22.7419 59.8637 23.251 58.9438 23.3977L58.9411 23.4021ZM55.2308 18.3379C55.3187 19.0327 55.4067 19.7273 55.341 20.4297C55.334 20.5049 55.3252 20.5796 55.3137 20.6538C55.3036 20.7192 55.2914 20.7842 55.2768 20.8484C55.2375 21.0205 55.1803 21.1882 55.0957 21.3481C54.6663 22.1562 53.6314 22.2512 53.059 21.5381C52.9172 21.3616 52.819 21.1641 52.736 20.9575C52.7165 20.9087 52.6977 20.8596 52.6795 20.8101C52.4136 20.0776 52.3412 19.3091 52.2702 18.541C52.26 18.4329 52.2941 18.4087 52.3966 18.3984C52.9647 18.3394 53.5326 18.2771 54.1004 18.2146C54.4131 18.1802 54.7257 18.1458 55.0385 18.1121C55.126 18.1033 55.1997 18.0928 55.2174 18.2324L55.2308 18.3379ZM59.2962 19.8301C59.3075 19.7732 59.3169 19.7158 59.3249 19.6584C59.399 19.1091 59.3329 18.5649 59.2668 18.0212L59.2405 17.8022C59.2364 17.7659 59.2279 17.7395 59.2154 17.7207C59.1851 17.6753 59.1313 17.6738 59.0583 17.6821C58.2739 17.7683 57.4884 17.8516 56.7032 17.9324C56.6471 17.938 56.6097 17.9517 56.5878 17.979C56.5663 18.0056 56.5599 18.0457 56.5658 18.1045C56.6274 18.7053 56.6773 19.3071 56.9129 19.9426C56.9397 20.0044 56.9864 20.1296 57.0462 20.2488C57.2903 20.729 57.7007 20.9797 58.1766 20.9424C58.7097 20.9011 59.0638 20.614 59.234 20.0747C59.2594 19.9949 59.2798 19.9128 59.2962 19.8301Z" fill="white" fill-opacity="0.13"/>
</svg>
