<svg width="20" height="20" viewBox="0 0 20 20" fill="none" xmlns="http://www.w3.org/2000/svg">
<path d="M7.24533 2.75802C3.24012 4.28115 1.23454 8.74738 2.75698 12.7522C4.27678 16.7501 8.74143 18.7609 12.7399 17.2477C16.7417 15.7338 18.7621 11.2551 17.2467 7.25764C15.7259 3.24745 11.2519 1.23436 7.24533 2.75802ZM12.328 16.116C9.00078 17.3997 5.1836 15.7092 3.90462 12.3861C2.59871 8.99233 4.26291 5.19745 7.62617 3.89999C11.0153 2.59268 14.799 4.26896 16.104 7.6562C17.4039 11.0301 15.7176 14.8085 12.328 16.116Z" fill="#4E60FF"/>
<path d="M7.98071 4.73195C5.0618 5.85579 3.61342 9.10655 4.7335 12.0226C5.84555 14.9189 9.1059 16.3783 11.9954 15.2731C14.9149 14.1564 16.3808 10.8948 15.2688 7.99C14.1524 5.07414 10.8859 3.61387 7.98071 4.73195ZM12.1174 8.57765C12.1845 8.99803 12.0751 9.34925 11.721 9.60697C11.7147 9.61146 11.7113 9.61912 11.6951 9.63905C11.8309 9.66504 11.9509 9.68967 12.0653 9.73441C12.4516 9.88604 12.6473 10.1828 12.7083 10.5802C12.7336 10.7435 12.7373 10.9088 12.7219 11.0739C12.6751 11.5784 12.402 11.918 11.9527 12.1273C11.6824 12.2536 11.3967 12.3356 11.1022 12.3791C10.9881 12.3961 10.9475 12.4312 10.9655 12.5534C11.0041 12.8212 11.0213 13.0924 11.0585 13.3607C11.0718 13.4567 11.0377 13.4771 10.9558 13.4829C10.8211 13.493 10.6855 13.505 10.5518 13.5263C10.4565 13.5415 10.4191 13.5224 10.411 13.4165C10.3895 13.138 10.3507 12.8613 10.324 12.5831C10.3174 12.5132 10.2985 12.4886 10.2256 12.5C10.1171 12.5165 10.0071 12.5278 9.89717 12.5321C9.81485 12.5355 9.80474 12.57 9.81382 12.6438C9.84815 12.9254 9.87237 13.2082 9.90763 13.4894C9.9182 13.5727 9.9003 13.6006 9.81365 13.6051C9.66598 13.6133 9.51849 13.633 9.3718 13.6535C9.29404 13.6646 9.27087 13.6385 9.26369 13.5614C9.23742 13.2746 9.19809 12.9896 9.17432 12.7024C9.16702 12.6152 9.13818 12.5993 9.05907 12.6083C8.70137 12.6483 8.34304 12.6812 7.98575 12.7238C7.89717 12.7343 7.86681 12.7268 7.87726 12.6266C7.8966 12.4372 7.90586 12.2464 7.90952 12.0561C7.91133 11.9734 7.94278 11.9477 8.02006 11.9436C8.13823 11.9372 8.25667 11.9259 8.37374 11.9083C8.53885 11.8834 8.61149 11.7922 8.5941 11.6259C8.4961 10.6998 8.39699 9.77371 8.2954 8.848C8.27537 8.6636 8.15669 8.55489 7.97194 8.55601C7.82852 8.55725 7.68405 8.57106 7.54265 8.59428C7.44305 8.61056 7.41926 8.5773 7.4135 8.48586C7.40377 8.33403 7.38605 8.18208 7.36307 8.03159C7.35005 7.94609 7.37534 7.91529 7.46168 7.90724C7.81561 7.8739 8.16913 7.83118 8.52313 7.7994C8.62289 7.79047 8.64613 7.75568 8.63329 7.65953C8.59761 7.38692 8.57547 7.11233 8.53915 6.83943C8.52732 6.74872 8.55519 6.72328 8.64102 6.71807C8.77603 6.70998 8.91122 6.69548 9.04488 6.67415C9.13969 6.65917 9.17852 6.68193 9.18695 6.78453C9.20841 7.05039 9.2456 7.31448 9.26752 7.58017C9.27509 7.67357 9.31218 7.69593 9.39465 7.67772C9.52144 7.64949 9.70065 7.69492 9.76421 7.6035C9.81978 7.52306 9.76 7.36069 9.74763 7.23526C9.72995 7.05842 9.71209 6.88113 9.68788 6.70519C9.67721 6.62726 9.70189 6.60039 9.77928 6.59523C9.92717 6.58487 10.0753 6.57232 10.221 6.54798C10.3121 6.53285 10.3271 6.57101 10.3343 6.64659C10.3614 6.9288 10.3953 7.21056 10.422 7.49294C10.4288 7.56493 10.4487 7.59069 10.5286 7.58933C10.8176 7.5855 11.1043 7.60899 11.3808 7.70301C11.8025 7.84594 12.0454 8.13744 12.1153 8.57633L12.1174 8.57765Z" fill="#4E60FF"/>
</svg>
