<svg width="26" height="27" viewBox="0 0 26 27" fill="none" xmlns="http://www.w3.org/2000/svg">
<g clip-path="url(#clip0_24_3051)">
<path d="M12.7111 0.866699V2.02225" stroke="white" stroke-width="2" stroke-linecap="round" stroke-linejoin="round"/>
<path d="M25.1333 11.5557H23.9778" stroke="white" stroke-width="2" stroke-linecap="round" stroke-linejoin="round"/>
<path d="M2.02222 11.5557H0.866669" stroke="white" stroke-width="2" stroke-linecap="round" stroke-linejoin="round"/>
<path d="M21.58 4.13135L20.7653 4.94601" stroke="white" stroke-width="2" stroke-linecap="round" stroke-linejoin="round"/>
<path d="M4.65689 4.94601L3.84222 4.13135" stroke="white" stroke-width="2" stroke-linecap="round" stroke-linejoin="round"/>
<path d="M22.7355 19.6501L21.9209 18.8354" stroke="white" stroke-width="2" stroke-linecap="round" stroke-linejoin="round"/>
<path d="M3.50133 18.8354L2.68666 19.6501" stroke="white" stroke-width="2" stroke-linecap="round" stroke-linejoin="round"/>
<path d="M13 6.64447C16.5129 6.64447 19.3556 9.48713 19.3556 13C19.3556 16.5129 16.5129 19.3556 13 19.3556C9.48712 19.3556 6.64445 16.5129 6.64445 13C6.64445 9.48713 9.48712 6.64447 13 6.64447ZM13 4.91113C8.53956 4.91113 4.91112 8.53958 4.91112 13C4.91112 17.4605 8.53956 21.0889 13 21.0889C17.4605 21.0889 21.0889 17.4605 21.0889 13C21.0889 8.53958 17.4605 4.91113 13 4.91113Z" fill="white"/>
<path d="M13 8.95557C15.236 8.95557 17.0444 10.764 17.0444 13" stroke="white" stroke-width="2" stroke-linecap="round" stroke-linejoin="round"/>
<path d="M15.3111 21.0888V22.8221C15.3111 23.7812 14.5369 24.5555 13.5778 24.5555H12.4222C11.4631 24.5555 10.6889 23.7812 10.6889 22.8221V21.0888H15.3111ZM15.3111 19.3555H10.6889C9.72977 19.3555 8.95555 20.1297 8.95555 21.0888V22.8221C8.95555 24.7346 10.5098 26.2888 12.4222 26.2888H13.5778C15.4902 26.2888 17.0444 24.7346 17.0444 22.8221V21.0888C17.0444 20.1297 16.2702 19.3555 15.3111 19.3555Z" fill="white"/>
<path d="M15.8889 22.5332H12.4222" stroke="white" stroke-width="2" stroke-linecap="round" stroke-linejoin="round"/>
</g>
<defs>
<clipPath id="clip0_24_3051">
<rect width="26" height="26.2889" fill="white"/>
</clipPath>
</defs>
</svg>
