<svg width="20" height="20" viewBox="0 0 20 20" fill="none" xmlns="http://www.w3.org/2000/svg">
<path d="M10 15.1429C7.16 15.1429 4.85714 12.84 4.85714 10C4.85714 7.16 7.16 4.85714 10 4.85714C12.84 4.85714 15.1429 7.16 15.1429 10C15.1429 12.84 12.84 15.1429 10 15.1429ZM10 16C13.3086 16 16 13.3086 16 10C16 6.69143 13.3086 4 10 4C6.69143 4 4 6.69143 4 10C4 13.3086 6.69143 16 10 16Z" fill="black"/>
<path d="M9.85712 13.1436L9.85712 9.14355" stroke="black" stroke-linecap="round" stroke-linejoin="round"/>
<path d="M9.85713 7.14188C9.62044 7.14188 9.42856 7.33376 9.42856 7.57045C9.42856 7.80715 9.62044 7.99902 9.85713 7.99902C10.0938 7.99902 10.2857 7.80715 10.2857 7.57045C10.2857 7.33376 10.0938 7.14188 9.85713 7.14188Z" fill="black"/>
</svg>
