<svg width="26" height="26" viewBox="0 0 26 26" fill="none" xmlns="http://www.w3.org/2000/svg">
<g clip-path="url(#clip0_24_3043)">
<path d="M13 1.77273C19.1986 1.77273 24.2273 6.80136 24.2273 13C24.2273 19.1986 19.1986 24.2273 13 24.2273C6.80136 24.2273 1.77273 19.1986 1.77273 13C1.77273 6.80136 6.80136 1.77273 13 1.77273ZM13 0C5.83227 0 0 5.83227 0 13C0 20.1677 5.83227 26 13 26C20.1677 26 26 20.1677 26 13C26 5.83227 20.1677 0 13 0Z" fill="white"/>
<path d="M9.17091 16.2323C9.17091 18.3182 10.6364 20.0909 12.4091 20.0909C13.7209 20.0909 16.5455 19.5 16.5455 16.5455C16.5455 14.1818 13.9041 13 13 13C12.1845 13 9.45455 12.4091 9.45455 10.0455C9.45455 7.09091 12.1845 6.5 13 6.5C13.8155 6.5 14.6486 6.91364 15.2691 7.53409C15.8895 8.15455 15.8895 8.69818 15.8895 9.51364" stroke="white" stroke-width="2" stroke-linecap="round" stroke-linejoin="round"/>
<path d="M12.7045 5.31836V21.2729" stroke="white" stroke-width="2" stroke-linecap="round" stroke-linejoin="round"/>
</g>
<defs>
<clipPath id="clip0_24_3043">
<rect width="26" height="26" fill="white"/>
</clipPath>
</defs>
</svg>
