<svg width="26" height="26" viewBox="0 0 26 26" fill="none" xmlns="http://www.w3.org/2000/svg">
<path d="M6.5 2.1665L3.25 6.49984V21.6665C3.25 22.2411 3.47827 22.7922 3.8846 23.1986C4.29093 23.6049 4.84203 23.8332 5.41667 23.8332H20.5833C21.158 23.8332 21.7091 23.6049 22.1154 23.1986C22.5217 22.7922 22.75 22.2411 22.75 21.6665V6.49984L19.5 2.1665H6.5Z" stroke="white" stroke-width="2" stroke-linecap="round" stroke-linejoin="round"/>
<path d="M3.25 6.5H22.75" stroke="white" stroke-width="2" stroke-linecap="round" stroke-linejoin="round"/>
<path d="M17.3333 10.8335C17.3333 11.9828 16.8768 13.085 16.0641 13.8976C15.2515 14.7103 14.1493 15.1668 13 15.1668C11.8507 15.1668 10.7485 14.7103 9.93586 13.8976C9.1232 13.085 8.66666 11.9828 8.66666 10.8335" stroke="white" stroke-width="2" stroke-linecap="round" stroke-linejoin="round"/>
</svg>
